<?xml version="1.0" standalone="no"?>
<!DOCTYPE svg PUBLIC "-//W3C//DTD SVG 1.1//EN" "http://www.w3.org/Graphics/SVG/1.1/DTD/svg11.dtd" >
<svg xmlns="http://www.w3.org/2000/svg">
<metadata>
This is a custom SVG webfont generated by Font Squirrel.
Copyright   : Copyright c 2002 2005 Parachute wwwparachutegr  All rights reserved
Designer    : Panos Vassiliou
Foundry     : Parachute Worldwide
Foundry URL : httpwwwparachutegr
</metadata>
<defs>
<font id="PFDinTextCondProLight" horiz-adv-x="870" >
<font-face units-per-em="2048" ascent="1536" descent="-512" />
<missing-glyph horiz-adv-x="417" />
<glyph unicode=" "  horiz-adv-x="417" />
<glyph unicode="&#x09;" horiz-adv-x="417" />
<glyph unicode="&#xa0;" horiz-adv-x="417" />
<glyph unicode="!" horiz-adv-x="452" d="M158 0v145h139v-145h-139zM162 1425h127l-15 -1067h-98z" />
<glyph unicode="&#x22;" horiz-adv-x="509" d="M102 1040v385h101v-385h-101zM311 1040v385h99v-385h-99z" />
<glyph unicode="#" d="M18 453v90h172l58 348h-158v90h172q0 6 6 40l15 81q8 47 16 102.5t16.5 102.5t13.5 80.5t5 39.5h92l-72 -446h236q0 6 5 40t13 81l18 102l17 103l13.5 80.5t5.5 39.5h94l-74 -446h166v-90h-180l-58 -348h164v-90h-178q0 -6 -5 -40t-13.5 -82t-16.5 -103.5t-16 -103.5 l-15 -83q-6 -35 -6 -41h-94l72 453h-234l-73 -453h-93l74 453h-158zM283 543h235q0 8 9 60l20 114l18 113q8 52 10 61h-235z" />
<glyph unicode="$" d="M43 221l104 64q35 -68 96.5 -118t155.5 -58v563q-84 31 -146.5 65.5t-103 78.5t-61 100.5t-20.5 132.5q0 78 21.5 144.5t64.5 116.5t104 79.5t141 35.5v170h74v-170q129 -8 209 -66.5t115 -131.5l-107 -70q-31 61 -83 100t-134 48v-523q186 -47 265 -141t79 -262 q0 -170 -86 -275.5t-258 -115.5v-209h-74v209q-135 8 -222 71.5t-134 161.5zM197 1049q2 -96 53 -147.5t149 -92.5v498q-98 -10 -150 -82t-52 -176zM473 109q115 10 164 83.5t49 184.5q0 63 -14.5 106t-42 73t-66.5 51.5t-90 39.5v-538z" />
<glyph unicode="%" horiz-adv-x="1269" d="M70 772v451q0 98 65.5 153.5t159.5 55.5t158.5 -55.5t64.5 -153.5v-451q0 -49 -17.5 -88t-48 -65.5t-71.5 -41t-86 -14.5q-92 0 -158.5 55.5t-66.5 153.5zM172 774q0 -53 34 -86t89 -33q53 0 86 33t33 86v447q0 51 -33 83.5t-86 32.5q-55 0 -89 -32.5t-34 -83.5v-447z M203 -35l755 1497h97l-758 -1497h-94zM745 197v460q0 49 18.5 86t49.5 64t72 40t86 13t85 -13t70.5 -40t49 -63.5t18.5 -86.5v-460q0 -49 -18.5 -87t-49 -65t-70.5 -40t-85 -13t-86 13t-72 40t-49.5 65t-18.5 87zM848 197q0 -53 33.5 -82t89.5 -29q53 0 86 28.5t33 82.5v458 q0 51 -33 81t-86 30q-55 0 -89 -29.5t-34 -81.5v-458z" />
<glyph unicode="&#x26;" horiz-adv-x="1114" d="M117 336q0 133 65.5 239.5t194.5 204.5l-59 92q-28 43 -47 86t-31.5 86t-12.5 91q0 61 19.5 117.5t58.5 97.5t96.5 65.5t130.5 24.5q92 0 163 -29t124 -96l-46 -40l-46 -38q-45 47 -90 65.5t-107 18.5q-45 0 -78.5 -17.5t-55 -44t-33 -59.5t-11.5 -63q0 -43 22.5 -101.5 t60.5 -125t86 -139.5l99 -144l99 -141l90 -128q31 59 46 124t24 128q29 -4 59.5 -5t58.5 -3q-10 -88 -36.5 -180t-73.5 -174l86 -125l88 -123h-154l-51.5 73t-50.5 74q-80 -90 -166 -124.5t-180 -34.5q-156 0 -249 94t-93 254zM242 344q0 -106 62.5 -174t170.5 -68 q72 0 142.5 39t119.5 101l-147 220l-150 220q-96 -76 -147 -159t-51 -179z" />
<glyph unicode="'" horiz-adv-x="380" d="M139 1040v385h101v-385h-101z" />
<glyph unicode="(" horiz-adv-x="501" d="M104 621q0 123 24 241.5t64.5 227t97 207t122.5 180.5l63 -37q-111 -174 -175 -387t-64 -424q0 -225 66.5 -440.5t172.5 -385.5l-57 -41q-63 80 -120.5 177.5t-100.5 207t-68 228.5t-25 246z" />
<glyph unicode=")" horiz-adv-x="501" d="M68 1438l65 35q63 -82 119.5 -179.5t97.5 -207t64.5 -227.5t23.5 -242.5t-24.5 -243.5t-67.5 -228.5t-99.5 -206t-117.5 -176.5q-29 18 -59 41q106 168 172.5 383t66.5 441q0 104 -16.5 211.5t-48 212t-76.5 203t-100 184.5z" />
<glyph unicode="*" horiz-adv-x="708" d="M55 1167l6.5 20.5t10.5 32t10 33t6 21.5l225 -96q0 10 -2 47t-5 77.5l-6 77.5t-3 47h109l-19 -249q8 4 42 17l72 29l71 29q34 14 44 21q2 -6 6.5 -22.5t10.5 -33t10 -30.5l6 -21l-235 -65l159 -193l-90 -65l-131 215q-6 -8 -25 -40l-41 -68l-40 -68q-18 -33 -25 -41 q-4 4 -17.5 13t-27.5 20.5t-27.5 19.5t-17.5 12l158 195q-10 2 -44 12l-73 20.5l-73 20.5t-44 12z" />
<glyph unicode="+" d="M41 543v102h346v361h98v-361h344v-102h-344v-363h-98v363h-346z" />
<glyph unicode="," horiz-adv-x="387" d="M100 -219l54 215h-41v168h155v-164l-90 -219h-78z" />
<glyph unicode="-" horiz-adv-x="733" d="M104 481v115h535v-115h-535z" />
<glyph unicode="." horiz-adv-x="378" d="M113 0v166h155v-166h-155z" />
<glyph unicode="/" horiz-adv-x="702" d="M31 -78l508 1559h102l-508 -1559h-102z" />
<glyph unicode="0" d="M104 313v797q0 80 27 140.5t73 102.5t106.5 63.5t126 21.5t125 -21.5t105.5 -63.5t73.5 -102.5t27.5 -140.5v-797q0 -80 -27.5 -140t-73.5 -101t-105.5 -62.5t-125 -21.5t-126 21.5t-106.5 62.5t-73 101t-27 140zM229 317q0 -98 57.5 -153t149.5 -55t148.5 55t56.5 153 v791q0 96 -56.5 151.5t-148.5 55.5t-149.5 -55.5t-57.5 -151.5v-791z" />
<glyph unicode="1" d="M205 1141l2 137l201 147h129v-1425h-127v1288z" />
<glyph unicode="2" d="M76 0v121l477 751q33 53 50.5 116t17.5 114q0 41 -11.5 79t-35 67.5t-62.5 48t-94 18.5q-86 0 -139.5 -58.5t-69.5 -166.5l-129 20q18 147 106 236.5t236 89.5q160 0 249 -88t89 -242q0 -78 -26.5 -153.5t-71.5 -147.5l-437 -684h512v-121h-661z" />
<glyph unicode="3" d="M59 272l125 27q14 -84 57.5 -138.5t141.5 -54.5q61 0 103 22t68 59.5t37 91t11 116.5q0 147 -49 219t-160 72h-80v113h68q111 0 162 59.5t51 188.5q0 53 -10.5 102t-34 86t-63.5 59.5t-99 22.5q-49 0 -84 -16.5t-56.5 -44t-34.5 -62.5t-19 -74l-125 23q10 63 33.5 116.5 t63.5 93.5t95 62.5t127 22.5q100 0 164.5 -31t102.5 -83t53.5 -123t15.5 -150q0 -41 -7 -87t-25.5 -88t-51.5 -77t-84 -54q61 -14 96 -47.5t52.5 -80t22.5 -100.5t5 -111q0 -90 -17.5 -166t-58.5 -132.5t-109.5 -88t-168.5 -31.5q-57 0 -111.5 16t-97.5 52t-72 89t-37 127z " />
<glyph unicode="4" d="M53 227v125l400 1073h135l-404 -1077h396v414h127v-414h114v-121h-114v-227h-127v227h-527z" />
<glyph unicode="5" d="M98 276l127 25q12 -90 59.5 -144.5t145.5 -54.5q72 0 114 30t63.5 81t27.5 119.5t6 146.5q0 74 -7 136.5t-29.5 107.5t-62.5 69.5t-104 24.5q-59 0 -110.5 -30.5t-79.5 -77.5h-117v716h625v-118h-510l4 -461q49 47 106.5 66.5t114.5 19.5q94 0 152.5 -34t91.5 -94.5 t44 -141t11 -175.5q0 -121 -15.5 -214t-53 -156.5t-104.5 -96t-169 -32.5q-287 -1 -330 288z" />
<glyph unicode="6" d="M102 383q0 92 16.5 184t69.5 213l293 645h135l-290 -649l4 -2q29 18 65.5 27.5t75.5 9.5q78 0 135.5 -30.5t94 -84t54 -126t17.5 -156.5q0 -199 -83 -312.5t-257 -113.5q-330 0 -330 395zM229 389q0 -133 45 -209t160 -76q102 0 155.5 70t53.5 223q0 66 -10 121t-34 95 t-62.5 62.5t-98.5 22.5q-63 0 -103 -25.5t-63.5 -68.5t-33 -99.5t-9.5 -115.5z" />
<glyph unicode="7" d="M100 1108v317h674v-118l-440 -1307h-133l440 1307h-422v-199h-119z" />
<glyph unicode="8" d="M92 393q0 147 45 230.5t125 117.5q-86 45 -121 118t-35 200q0 98 27 169.5t72 118t105.5 69t127.5 22.5q70 0 131.5 -21.5t106.5 -67.5t70.5 -118t25.5 -172q0 -125 -40 -200t-114 -118q86 -37 126 -119.5t40 -230.5q0 -111 -28.5 -188.5t-75.5 -124.5t-110.5 -68.5 t-131.5 -21.5q-70 0 -132 21.5t-110.5 68.5t-76 124.5t-27.5 190.5zM219 401q0 -162 61.5 -229.5t157.5 -67.5q111 0 163 73t52 224q0 158 -57 222.5t-158 64.5q-96 0 -157.5 -65.5t-61.5 -221.5zM231 1051q0 -131 54.5 -193.5t153 -62.5t151.5 63.5t53 198.5 q0 260 -205 260q-207 0 -207 -266z" />
<glyph unicode="9" d="M98 1010q0 199 83 312.5t257 113.5q332 0 332 -396q0 -92 -17.5 -184t-70.5 -213l-293 -645h-135l291 649l-4 2q-29 -18 -66 -27.5t-76 -9.5q-78 0 -135 31t-94 84t-54.5 126t-17.5 157zM227 1026q0 -66 10.5 -121t34 -95t62.5 -62.5t98 -22.5q63 0 103 23.5t64 64.5 t33 98.5t9 122.5q0 133 -45 209t-160 76q-102 0 -155.5 -69.5t-53.5 -223.5z" />
<glyph unicode=":" horiz-adv-x="380" d="M111 0v166h153v-166h-153zM111 616v168h153v-168h-153z" />
<glyph unicode=";" horiz-adv-x="380" d="M100 -219l52 215h-39v168h155v-164l-90 -219h-78zM113 616v166h155v-166h-155z" />
<glyph unicode="&#x3c;" d="M53 547v96l758 381v-111l-645 -317q10 -4 59 -28l118 -57l146 -73l147 -72l118 -59q49 -25 59 -28v-111z" />
<glyph unicode="=" d="M41 365v106h788v-106h-788zM41 709v102h788v-102h-788z" />
<glyph unicode="&#x3e;" d="M55 168v111q10 4 60 28l116 59l146 72l145 73l117 57q49 24 59 28l-643 317v111l760 -381v-96z" />
<glyph unicode="?" horiz-adv-x="847" d="M72 1100q27 170 128 253t238 83q88 0 153.5 -27t109.5 -74t65.5 -112.5t21.5 -143.5q0 -55 -10 -97t-26.5 -78t-38 -68.5t-45.5 -65.5q-23 -31 -49.5 -63.5t-50 -68.5t-40 -75t-16.5 -82v-133h-129v117q0 129 72 225l71 95q35 44 62.5 86t45 86t17.5 93.5t-9 96.5 t-33.5 84t-67.5 59.5t-111 22.5q-49 0 -90 -19.5t-70.5 -52.5t-47 -75t-21.5 -87l-63.5 11.5t-65.5 9.5zM377 0v147h139v-147h-139z" />
<glyph unicode="@" horiz-adv-x="1585" d="M100 688q0 164 50.5 302t143.5 238.5t225 157t298 56.5q150 0 272.5 -48t211 -134t135.5 -207t47 -265q0 -139 -29 -233t-76 -153.5t-109.5 -85t-129.5 -25.5q-16 0 -44 6t-55.5 20.5t-52 39t-33.5 59.5q-2 0 -4 -2q-33 -55 -99.5 -82t-129.5 -27q-109 0 -170.5 61.5 t-61.5 165.5q0 45 13.5 87.5t42 76t74 54t108.5 20.5h199v107q0 61 -37 97t-121 36q-49 0 -92 -21.5t-68 -60.5l-84 47q39 59 101.5 95t140.5 36q55 0 103.5 -11.5t84 -38t55 -70.5t19.5 -109v-355q0 -63 31 -98t84 -35q47 0 89 18.5t73.5 64.5t50 123t18.5 193 q0 133 -45 237.5t-119.5 175.5t-174 108t-210.5 37q-147 0 -261.5 -50.5t-193.5 -138.5t-121 -209t-42 -260q0 -154 43 -277.5t124 -210.5t196.5 -135.5t263.5 -48.5q109 0 198.5 19.5t181.5 66.5l37 -94q-94 -37 -195.5 -62.5t-211.5 -25.5q-166 0 -303.5 51.5 t-235.5 149.5t-151.5 240.5t-53.5 326.5zM588 537q0 -66 43 -101t119 -35q74 0 125 37t51 111v133h-174q-72 0 -118 -33.5t-46 -111.5z" />
<glyph unicode="A" horiz-adv-x="1001" d="M20 0l416 1425h129l416 -1425h-137l-96 342h-496l-96 -342h-136zM281 461h436l-125 440l-88 332h-8l-17 -64l-26 -102l-28 -103l-17 -63q-6 -25 -25 -87l-38 -133l-38 -133q-18 -62 -26 -87z" />
<glyph unicode="B" horiz-adv-x="1028" d="M133 0v1425h410q195 0 287 -100t92 -266q0 -98 -39 -180t-152 -131v-7q57 -14 98 -48t68 -79t38 -99t11 -112q0 -201 -103.5 -302t-273.5 -101h-436zM264 127h287q74 0 124 22.5t80.5 61.5t44 91t13.5 112q0 117 -61.5 192.5t-196.5 75.5h-291v-555zM264 799h271 q131 0 193.5 69.5t62.5 186.5q0 115 -64.5 183.5t-200.5 68.5h-262v-508z" />
<glyph unicode="C" horiz-adv-x="948" d="M102 403v619q0 90 28 166t81 131t129 86t172 31q141 0 246.5 -71t140.5 -202l-127 -47q-20 92 -88 143.5t-172 51.5q-66 0 -118 -22.5t-88 -61.5t-54.5 -91.5t-18.5 -111.5v-625q0 -59 19.5 -112.5t55.5 -92t87 -61t117 -22.5q100 0 170 51t92 149l125 -45 q-33 -137 -139.5 -207.5t-247.5 -70.5q-94 0 -170 30.5t-129 85t-82 131t-29 168.5z" />
<glyph unicode="D" horiz-adv-x="1052" d="M131 0v1425h399q293 0 383 -225q25 -70 30 -174t5 -240v-235q0 -98 -5 -177t-28 -136q-27 -70 -68.5 -115t-96 -72.5t-119 -39t-133.5 -11.5h-367zM264 121h246q223 0 283 174q12 33 18 76t6 84v485q0 47 -4 97t-18 91q-27 86 -99.5 131.5t-185.5 45.5h-246v-1184z" />
<glyph unicode="E" horiz-adv-x="919" d="M133 0v1425h741v-122h-610v-519h524v-118h-524v-539h610v-127h-741z" />
<glyph unicode="F" horiz-adv-x="897" d="M133 0v1425h741v-122h-608v-523h522v-118h-522v-662h-133z" />
<glyph unicode="G" horiz-adv-x="1019" d="M100 403v619q0 90 29 166t82 131t129 86t172 31q141 0 246.5 -70t140.5 -205l-20 -7l-43 -14l-43 -14l-21 -6q-23 90 -90.5 140.5t-169.5 50.5q-66 0 -118 -22.5t-88 -61.5t-55.5 -91.5t-19.5 -111.5v-629q0 -59 19.5 -111.5t55.5 -92t88 -62.5t118 -23q61 0 112.5 22 t88.5 60.5t57.5 89t20.5 109.5v242h-242v119h375v-351q0 -92 -31 -168.5t-85 -130t-130 -83t-166 -29.5q-96 0 -172 30.5t-129 86t-82 132t-29 168.5z" />
<glyph unicode="H" horiz-adv-x="1077" d="M133 0v1425h131v-641h545v641h135v-1425h-135v666h-545v-666h-131z" />
<glyph unicode="I" horiz-adv-x="421" d="M143 0v1425h133v-1425h-133z" />
<glyph unicode="J" horiz-adv-x="811" d="M10 104l94 89q35 -35 83.5 -57.5t97.5 -22.5q51 0 97 13t81 43t54.5 79t19.5 123v1054h135v-1065q0 -98 -30 -168.5t-82 -115.5t-121.5 -66.5t-149.5 -21.5q-82 0 -157 29.5t-122 86.5z" />
<glyph unicode="K" horiz-adv-x="1042" d="M131 0v1425h133v-819h4l272 411l271 408h145l-184 -277l-184 -276l428 -872h-146l-364 750q-14 -18 -49 -70l-73 -109l-73 -107l-47 -69v-395h-133z" />
<glyph unicode="L" horiz-adv-x="894" d="M133 0v1425h131v-1298h596v-127h-727z" />
<glyph unicode="M" horiz-adv-x="1325" d="M133 0v1425h133q8 -23 27 -64l41 -95l48 -110l48 -109l41 -96l29 -64l166 -398h4l170 402l231 534h131v-1425h-131v1102l-6 -2l-162 -389l-190 -432h-95q-10 27 -36 88l-58 130l-57 130l-39 88l-158 383l-8 -2v-1096h-129z" />
<glyph unicode="N" horiz-adv-x="1136" d="M131 0v1425h129l48 -90l72 -133l83 -154l82 -154l70 -132q32 -59 51 -90l202 -383l9 2v1134h131v-1425h-129l-410 762l-44 81l-57 107l-58 108l-42 81h-4v-1139h-133z" />
<glyph unicode="O" horiz-adv-x="1005" d="M90 424v600q0 78 24.5 151.5t75 132t128 93.5t186.5 35q100 0 176 -34t128 -90.5t78.5 -131t26.5 -156.5v-616q0 -94 -29.5 -171t-84 -132.5t-129 -86t-166.5 -30.5q-106 0 -184 33.5t-129.5 93t-76 139.5t-24.5 170zM221 422q0 -68 17.5 -125t53.5 -99t89 -65.5 t125 -23.5q57 0 107.5 21.5t87 60t57 92t20.5 114.5v625q0 47 -15 98t-48 93t-85 70t-126 28t-127 -25.5t-88 -66.5t-51.5 -93.5t-16.5 -103.5v-600z" />
<glyph unicode="P" horiz-adv-x="978" d="M133 0v1425h402q197 0 302 -103t105 -314q0 -82 -21.5 -158t-69.5 -133.5t-124 -92t-184 -34.5h-277v-590h-133zM266 715h266q78 0 131.5 23.5t85 63.5t46 94t14.5 114q0 137 -67.5 215t-211.5 78h-264v-588z" />
<glyph unicode="Q" horiz-adv-x="1024" d="M104 424v600q0 78 25 151.5t75 132t128 93.5t184 35q100 0 177 -34t129 -90.5t79 -131t27 -156.5v-616q0 -68 -15.5 -125.5t-40.5 -104.5l152 -121l-70 -88q-4 4 -26 22l-48 38l-49 39l-28 22q-53 -51 -127 -76.5t-160 -25.5q-106 0 -184 33.5t-128 93t-75 139.5t-25 170 zM233 1022l3 -600q0 -68 17 -125t53 -99t89.5 -65.5t124.5 -23.5q106 0 178 65l-172 137l74 84l164 -133q29 61 29 135v625q0 47 -15.5 98t-49.5 93t-86 70t-126 28t-127 -25.5t-88 -66.5t-51.5 -93.5t-16.5 -103.5z" />
<glyph unicode="R" horiz-adv-x="1021" d="M133 0v1425h430q182 0 280.5 -101t98.5 -286q0 -141 -65.5 -239.5t-198.5 -139.5l283 -659h-146l-266 643l-285 -2v-641h-131zM264 756h275q131 0 200.5 72.5t69.5 209.5q0 133 -68.5 200t-201.5 67h-275v-549z" />
<glyph unicode="S" horiz-adv-x="964" d="M53 225l117 68q43 -76 119 -128t192 -52q143 0 209 74.5t66 193.5q0 66 -19.5 111t-55.5 76.5t-87 54t-115 43.5q-104 31 -178 65.5t-121 79.5t-68.5 104.5t-21.5 139.5q0 84 27.5 154.5t79 120.5t125 79t167.5 29q156 0 245 -51.5t140 -135.5l-114 -78 q-41 72 -106.5 106t-170.5 34q-127 0 -192.5 -75t-65.5 -183q0 -59 23.5 -101.5t66.5 -72t101.5 -53t130.5 -46.5q92 -29 157.5 -63.5t107.5 -81.5t62.5 -109.5t20.5 -146.5q0 -180 -107.5 -287.5t-308.5 -107.5q-162 0 -267.5 64t-158.5 175z" />
<glyph unicode="T" horiz-adv-x="821" d="M6 1305v120h807v-120h-336v-1305h-131v1305h-340z" />
<glyph unicode="U" horiz-adv-x="1044" d="M113 399v1026h129v-1026q0 -61 20.5 -113.5t58 -90t89 -60t112.5 -22.5q119 0 199 74.5t80 209.5v1028h133v-1028q0 -96 -32 -171.5t-87 -129t-130 -81t-163 -27.5q-92 0 -166.5 29.5t-129 83t-84 130t-29.5 168.5z" />
<glyph unicode="V" horiz-adv-x="944" d="M27 1425h135l43 -170l49 -195l54 -215l57 -224l102 -404h4l44 185l42 186l221 837h135l-381 -1425h-126l-191 713z" />
<glyph unicode="W" horiz-adv-x="1431" d="M35 1425h135l123 -641l94 -522h6l107 471l159 692h113l164 -704l102 -459h6l89 486l124 677h138l-289 -1425h-123l-160 688q-29 117 -53.5 235.5t-52.5 235.5h-6l-51 -220l-48 -224l-43 -186l-45 -195l-42 -183l-33 -151h-125l-144 713z" />
<glyph unicode="X" horiz-adv-x="894" d="M12 0l365 735l-342 690h143l271 -569l266 569h145l-344 -690l367 -735h-146l-288 606l-291 -606h-146z" />
<glyph unicode="Y" horiz-adv-x="876" d="M14 1425h138l84 -201l83 -200q29 -68 56.5 -140.5t56.5 -140.5l139 328l148 354h135l-356 -831v-594h-127v594z" />
<glyph unicode="Z" horiz-adv-x="829" d="M51 0v121l586 1184h-557v120h698v-114l-585 -1186h579v-125h-721z" />
<glyph unicode="[" horiz-adv-x="462" d="M139 -215v1645h289v-89h-172v-1470h172v-86h-289z" />
<glyph unicode="\" horiz-adv-x="530" d="M8 1468h101l407 -1529h-102z" />
<glyph unicode="]" horiz-adv-x="462" d="M59 -129h170v1470h-170v89h285v-1647h-285v88z" />
<glyph unicode="^" d="M45 702l348 719h94l347 -719h-109l-287 601q-4 -8 -24 -54l-52 -109l-64 -138l-65 -136l-52 -109q-22 -46 -25 -55h-111z" />
<glyph unicode="_" horiz-adv-x="1021" d="M0 -147h1022v-103h-1022v103z" />
<glyph unicode="`" horiz-adv-x="856" d="M348 1460l129 43l146 -332l-78 -32z" />
<glyph unicode="a" horiz-adv-x="856" d="M70 279q0 63 19.5 120.5t60 98.5t104 65.5t152.5 24.5h225v139q0 82 -50.5 129t-152.5 47q-70 0 -127 -23.5t-88 -76.5q-23 12 -49 31l-49 32q43 74 122.5 116t190.5 42q70 0 131.5 -14.5t106.5 -49t70.5 -92t25.5 -143.5v-725h-131v84l-6 2q-41 -55 -111 -76.5 t-149 -21.5q-145 0 -220 83t-75 208zM190 287q0 -80 53.5 -130.5t157.5 -50.5q45 0 86 10.5t73 32t51.5 57.5t19.5 89v180h-230q-92 0 -151.5 -45t-59.5 -143z" />
<glyph unicode="b" horiz-adv-x="860" d="M94 0v1485h127v-604h4q41 63 102.5 102t147.5 39q106 0 169 -43t94.5 -114.5t39.5 -163t8 -187.5q0 -102 -10 -197.5t-43 -168t-94 -116.5t-166 -44q-74 0 -137.5 28.5t-110.5 100.5q-2 0 -2 -1t-2 -1v-115h-127zM219 520q0 -63 3 -136t23.5 -134.5t64.5 -102.5t128 -41 q70 0 114 30t66.5 83t30.5 126t8 159q0 84 -7 155.5t-29.5 125t-65.5 83t-116.5 29.5t-116.5 -37t-66 -92t-30 -122t-7 -126z" />
<glyph unicode="c" horiz-adv-x="776" d="M66 520q0 106 19 198.5t63.5 160t116 106.5t175.5 39q111 0 185.5 -48t113.5 -134l-108 -64q-23 57 -72 91t-117 34q-80 0 -129 -31.5t-74.5 -85t-34.5 -123t-9 -145.5t8 -149.5t34.5 -132t74.5 -94.5t126 -36q70 0 119 34t72 85q27 -16 53 -29l55 -28 q-37 -86 -114.5 -133t-186.5 -47q-115 0 -186.5 40t-112.5 110.5t-56 168.5t-15 213z" />
<glyph unicode="d" horiz-adv-x="860" d="M72 500q0 96 10 190t45 168t99.5 119t172.5 45q78 0 134.5 -30.5t99.5 -88.5h4v582h127v-1485h-127v115q-2 0 -4 2q-47 -72 -110.5 -100.5t-137.5 -28.5q-104 0 -165.5 42t-94.5 112.5t-43 164t-10 193.5zM201 502q0 -80 8 -153t30.5 -126t65.5 -85t115 -32q82 0 126 42 t64.5 104.5t23.5 135.5t3 132q0 68 -6 134.5t-27.5 120.5t-64.5 88t-115 34q-76 0 -120 -34t-67.5 -89t-29.5 -125.5t-6 -146.5z" />
<glyph unicode="e" horiz-adv-x="851" d="M76 512q0 96 14 188.5t54 164t109 115.5t177 44q92 0 158.5 -31.5t108.5 -88t61.5 -134.5t19.5 -170v-127h-575q0 -84 10 -151.5t38 -116.5t74 -76t119 -27q66 0 119 37t78 90l109 -55q-39 -88 -119 -137t-180 -49q-109 0 -180.5 31.5t-114.5 97t-61.5 164t-18.5 231.5z M207 578h442v4q0 70 -9 129t-32.5 102t-65.5 66.5t-110 23.5q-66 0 -108.5 -24.5t-68.5 -68.5t-36 -103t-12 -129z" />
<glyph unicode="f" horiz-adv-x="501" d="M39 905v107h115v233q0 125 62.5 184.5t166.5 59.5h96v-119h-84q-35 0 -56.5 -11t-33.5 -30.5t-16 -45.5t-4 -52v-219h192v-107h-192v-905h-131v905h-115z" />
<glyph unicode="g" horiz-adv-x="888" d="M80 496q0 98 11 193t45 170t95.5 120t163.5 45q74 0 137.5 -29.5t110.5 -101.5l4 2v115h127v-1033q0 -186 -88 -294.5t-272 -108.5q-96 0 -172 45t-115 131l106 62q23 -47 70 -83t115 -36q121 0 175 71.5t54 192.5v174h-4q-41 -66 -102.5 -103.5t-147.5 -37.5 q-106 0 -168.5 43t-94.5 113.5t-41 162t-9 187.5zM211 506q0 -82 6 -153.5t28.5 -125t64.5 -84t116 -30.5q72 0 115 34.5t66.5 89t31.5 121t8 131.5q0 63 -6 136t-27.5 134.5t-64.5 102.5t-119 41q-74 0 -117 -31.5t-66.5 -86t-29.5 -126t-6 -153.5z" />
<glyph unicode="h" horiz-adv-x="892" d="M102 0v1487h129v-596h5q43 70 111.5 101.5t146.5 31.5q135 0 214.5 -83t79.5 -226v-715h-129v672q0 104 -50 164.5t-154 60.5q-98 0 -162 -65.5t-64 -172.5v-659h-127z" />
<glyph unicode="i" horiz-adv-x="382" d="M125 1272v135h133v-135h-133zM127 0v1012h129v-1012h-129z" />
<glyph unicode="j" horiz-adv-x="403" d="M-20 -303h40q66 2 92.5 46t26.5 116v1153h131v-1180q0 -109 -57 -180.5t-174 -71.5h-59v117zM139 1272v133h133v-133h-133z" />
<glyph unicode="k" horiz-adv-x="874" d="M115 0v1485h127v-1018h2l85 113l118 158l119 160l85 114h148l-285 -381l42 -76l61 -111l71 -128l71 -128l61 -111l42 -77h-141l-289 528l-40 -53l-55 -74l-55 -74l-40 -55v-272h-127z" />
<glyph unicode="l" horiz-adv-x="432" d="M121 219v1266h129v-1241q0 -66 23.5 -99.5t86.5 -33.5h37v-117h-43q-53 0 -97 10t-74.5 36t-46 69.5t-15.5 109.5z" />
<glyph unicode="m" horiz-adv-x="1449" d="M113 0v1008h125v-123h4q43 70 107.5 102.5t139.5 32.5q98 0 165 -41t100 -109h2q53 74 122.5 112t161.5 38q135 0 215 -84t80 -223v-713h-129v633q0 119 -47 190.5t-158 71.5q-109 0 -162 -76t-53 -196v-623h-127v633q0 117 -47 189.5t-161 72.5q-109 0 -161 -78 t-52 -199v-618h-125z" />
<glyph unicode="n" horiz-adv-x="886" d="M98 0v1012h129v-125h6q43 70 111 103.5t145 33.5q135 0 216 -84t81 -225v-715h-129v672q0 104 -54 163.5t-159 59.5q-98 0 -157.5 -65.5t-59.5 -170.5v-659h-129z" />
<glyph unicode="o" horiz-adv-x="878" d="M82 500q0 98 8 183t31 142q39 96 122 147.5t201 51.5q102 0 171 -40t110 -103q39 -53 53.5 -155.5t14.5 -221.5q0 -37 -2.5 -81t-7.5 -88t-12 -83t-15 -66q-39 -111 -128 -155.5t-200 -44.5q-104 0 -171 38.5t-103 100.5q-41 55 -56.5 152.5t-15.5 222.5zM209 485.5 q0 -104.5 10 -175t39 -111.5q55 -96 178 -97q68 0 123 34t80 106q16 41 20.5 113.5t4.5 158.5q0 92 -7.5 160.5t-23.5 105.5q-25 63 -75 95t-118 32q-66 0 -117 -29.5t-79 -89.5q-23 -41 -29 -119.5t-6 -183z" />
<glyph unicode="p" horiz-adv-x="874" d="M92 -412v1422h127v-115q2 0 4 -2q47 72 110.5 101.5t137.5 29.5q104 0 166.5 -43t94.5 -113.5t42 -164t10 -193.5q0 -96 -11 -189.5t-46 -167t-99.5 -118.5t-170.5 -45q-78 0 -133.5 30.5t-100.5 88.5h-4v-521h-127zM219 508q0 -61 4 -131t25.5 -128.5t63.5 -97 t120 -38.5q76 0 120 32.5t66.5 88t29.5 126t7 146.5q0 80 -7 152.5t-29.5 127t-65.5 86t-117 31.5q-80 0 -124 -38t-64.5 -96t-24.5 -128t-4 -133z" />
<glyph unicode="q" horiz-adv-x="886" d="M82 496q0 98 10 192t44 169t96.5 120t166.5 45q78 0 139.5 -28.5t108.5 -100.5q2 0 2 1t2 1v115h127v-1424h-127v545h-4q-41 -66 -102.5 -103.5t-147.5 -37.5q-106 0 -168.5 43t-95.5 113.5t-42 162t-9 187.5zM215 506q0 -76 5 -146.5t27.5 -126t65.5 -88t121 -32.5 q72 0 115 36.5t66.5 92t30.5 122t7 125.5q0 63 -3 137t-23.5 135.5t-65.5 102.5t-127 41q-72 0 -115 -31.5t-65.5 -86t-30.5 -127t-8 -154.5z" />
<glyph unicode="r" horiz-adv-x="612" d="M125 0v1012h127v-140h6q43 88 108.5 120t149.5 32q27 0 51.5 -5t42.5 -13l-28 -138q-23 10 -48.5 15.5t-48.5 5.5q-104 0 -168.5 -65.5t-64.5 -192.5v-631h-127z" />
<glyph unicode="s" horiz-adv-x="815" d="M55 186l107 60q70 -143 246 -144q92 0 150 43t58 136q0 45 -15 74.5t-44 49t-67.5 33t-86.5 25.5q-74 18 -133 40.5t-101 54.5t-64.5 77t-22.5 108q0 129 86 205t238 76q129 0 208.5 -49t114.5 -137l-111 -56q-29 63 -84 94t-131 31q-100 0 -147 -48t-47 -116 q0 -41 19.5 -66.5t53 -44t77.5 -30.5l96 -27q72 -16 126 -38.5t91 -57.5t55 -83t18 -117q0 -131 -87 -212t-257 -81q-252 -1 -346 200z" />
<glyph unicode="t" horiz-adv-x="499" d="M35 905v107h121v266h129v-266h155v-107h-155v-645q0 -68 23.5 -106.5t94.5 -38.5h56v-115h-84q-111 0 -165 61.5t-54 165.5v678h-121z" />
<glyph unicode="u" horiz-adv-x="901" d="M102 295v717h129v-674q0 -104 56.5 -165.5t156.5 -61.5q98 0 158 67.5t60 173.5v660h126v-1012h-126v123h-7q-43 -72 -111.5 -103.5t-144.5 -31.5q-135 0 -216 83t-81 224z" />
<glyph unicode="v" horiz-adv-x="786" d="M14 1012h140l30 -105l38 -131l38 -131l31 -104q2 -8 17 -62l33 -115l33 -116q15 -53 19 -62h6l22 77l28 101l27 100l22 77l29 104l36 131l37 131l31 105h139l-44 -139l-54 -175l-59 -193l-57 -194l-53 -175l-44 -136h-131l-44 136l-55 175l-58 194l-58 193l-55 175z" />
<glyph unicode="w" horiz-adv-x="1280" d="M16 1010h136l135 -529q23 -86 40 -159l27 -117h8l70 262l32 118l41 152l41 154l32 119h124l142 -535q16 -70 35 -138l36 -138h7l69 270l15 58l23 97l29 114l28 116l24 96q10 41 14 60h136l-277 -1010h-125l-141 510l-17 59l-21 82l-23 82l-17 62h-2l-82 -303l-135 -492 h-127z" />
<glyph unicode="x" horiz-adv-x="780" d="M27 0l290 520l-276 492h145l205 -400l203 400h145l-278 -494l293 -518h-144l-219 420l-221 -420h-143z" />
<glyph unicode="y" horiz-adv-x="768" d="M6 1010h137l66 -214l65 -212q8 -31 24 -83l33 -109q17 -56 31.5 -108.5t24.5 -82.5h4l31 106l41 139l46 157l46 157l42 140l32 110h133l-375 -1225q-61 -201 -242 -201h-47v111h41q59 0 91 40t53 113l49 164l-163 498z" />
<glyph unicode="z" horiz-adv-x="739" d="M55 0v113l486 784h-453v113h598v-109l-485 -782h481v-119h-627z" />
<glyph unicode="{" horiz-adv-x="481" d="M45 563v82q43 8 69.5 36t43 67.5t22.5 87t6 94.5v262q0 104 45 169.5t131 65.5h95v-88h-56q-31 0 -51 -17t-30.5 -45t-14.5 -59.5t-4 -62.5v-266q0 -63 -13.5 -111.5t-34 -83.5t-43 -56.5t-40.5 -29.5v-4q45 -16 88 -88t43 -203v-260q0 -31 4 -62.5t15.5 -58t31 -44 t49.5 -17.5h56v-86h-95q-78 0 -127 58.5t-49 156.5v283q0 121 -28.5 192.5t-112.5 87.5z" />
<glyph unicode="|" horiz-adv-x="391" d="M147 -332v1798h105v-1798h-105z" />
<glyph unicode="}" horiz-adv-x="481" d="M41 -129h57q31 0 50.5 17.5t30.5 44t15.5 58.5t4.5 62v281q0 61 12 108t31.5 81t42 54.5t43.5 28.5v4q-18 8 -41 28.5t-42.5 55.5t-32.5 83t-13 112v266q0 31 -4.5 62.5t-14.5 59.5t-29.5 45t-52.5 17h-57v84h86q86 0 135 -57t49 -156v-280q0 -49 6.5 -96.5t21.5 -86 t43 -66.5t71 -36v-82q-84 -16 -113 -88t-29 -192v-283q0 -104 -52 -159.5t-130 -55.5h-88v86z" />
<glyph unicode="~" d="M49 504q41 66 97.5 103.5t125.5 37.5q45 0 89.5 -16.5t86 -36t81.5 -35.5t77 -16q41 0 70 23.5t65 70.5l82 -57q-43 -72 -95 -113t-124 -41q-39 0 -80 17l-84 37l-86 36.5t-84 17.5q-45 0 -74.5 -21.5t-66.5 -64.5z" />
<glyph unicode="&#xa1;" horiz-adv-x="452" d="M158 1135v147h139v-147h-139zM162 -141q2 111 3 249t3 282l4 283q2 138 4 249h98q2 -110 3.5 -248.5t3.5 -283.5l4 -282q2 -138 4 -249h-127z" />
<glyph unicode="&#xa2;" d="M98 520q0 98 16.5 184.5t53.5 153t96.5 108.5t147.5 54v205h77v-201q102 -4 174 -52t107 -130l-53 -32l-53 -32q-23 53 -68 87t-107 38v-797q59 4 104.5 38t65.5 81q29 -16 56 -29l55 -28q-37 -82 -109.5 -129t-171.5 -51v-221h-77v225q-96 10 -156.5 53t-95.5 112.5 t-48.5 161.5t-13.5 201zM225 518.5q0 -67.5 6.5 -135.5t27 -123t57 -95t96.5 -52v784q-59 -12 -96 -48t-56.5 -87t-27 -113.5t-7.5 -130z" />
<glyph unicode="&#xa3;" d="M61 0v106q66 104 109 219t43 257q0 10 -1 21t-1 22h-150v104h134q-10 53 -26 101l-29 94q-13 45 -23.5 89t-10.5 91q0 70 23 130t65 105t103 71t141 26q127 0 224.5 -60.5t140.5 -195.5l-119 -45q-41 104 -101.5 142t-142.5 38q-37 0 -72.5 -13.5t-63.5 -40t-44 -66.5 t-16 -93q0 -43 9 -85t23.5 -86t27.5 -94.5t24 -107.5h262v-104h-252q0 -152 -28.5 -270.5t-96.5 -237.5h569v-117h-721z" />
<glyph unicode="&#xa4;" horiz-adv-x="1095" d="M111 299l131 127q-41 51 -59.5 110.5t-18.5 120.5q0 121 78 234l-129 129l77 78l132 -129q109 78 233 78q121 0 231 -76l127 127l13 -13l26 -26l27 -28l12 -13l-127 -127q80 -115 80 -234q0 -125 -78 -233l127 -125l-12 -13l-27 -28l-26 -27l-13 -12l-127 127 q-109 -80 -233.5 -80t-235.5 82l-131 -129l-12 12l-26 28l-27 28zM281 657.5q0 -57.5 21.5 -107.5t59 -87t87 -58.5t104.5 -21.5q57 0 107.5 21.5t88 58.5t59 87t21.5 107.5t-21.5 107.5t-58 87t-87 58.5t-107.5 21.5q-55 0 -105.5 -21.5t-88 -58.5t-59 -87t-21.5 -107.5z " />
<glyph unicode="&#xa5;" d="M39 1425h129l56 -147l76 -196l76 -195l56 -148h6q18 53 56 148l75 195l75 196q36 94 54 147h133l-290 -731h245v-86h-276l-12 -41v-121h288v-86h-288v-360h-123v360h-281v86h281v119q0 6 -4 22.5t-6 20.5h-271v86h238z" />
<glyph unicode="&#xa6;" horiz-adv-x="391" d="M147 -332v852h103v-852h-103zM147 614v852h103v-852h-103z" />
<glyph unicode="&#xa7;" horiz-adv-x="897" d="M100 -29q20 20 37 40t37 38q59 -53 120.5 -74.5t129.5 -21.5q109 0 172 48t63 140q0 80 -66.5 137.5t-191.5 112.5q-74 33 -130 64.5t-93 68.5t-55.5 82t-18.5 105q0 70 36 130t96 103q-47 41 -71 90t-24 111q0 63 23.5 117.5t66.5 93.5t101.5 60.5t128.5 21.5 q182 0 311 -113l-76 -88q-59 53 -117.5 72.5t-119.5 19.5q-92 0 -143.5 -51t-51.5 -123q0 -66 48 -107.5t128 -84.5q61 -33 129 -65t123.5 -73t91 -98t35.5 -139q0 -70 -31.5 -130.5t-89.5 -107.5q84 -96 84 -205q0 -135 -96 -218t-264 -83q-90 0 -176.5 36t-145.5 91z M223 719q0 -61 45 -105.5t106.5 -79t126 -60t105.5 -50.5q45 27 70.5 70t25.5 90v4q0 55 -26.5 91t-75.5 65.5t-117.5 59.5t-150.5 73q-47 -23 -78 -64t-31 -94z" />
<glyph unicode="&#xa8;" horiz-adv-x="860" d="M193 1219v139h133v-139h-133zM537 1219v139h129v-139h-129z" />
<glyph unicode="&#xa9;" horiz-adv-x="1531" d="M106 698.5q0 153.5 47.5 285.5t134.5 228.5t208.5 150.5t273.5 54q150 0 272.5 -54t209.5 -150.5t134.5 -228.5t47.5 -285.5t-47.5 -283.5t-134.5 -226.5t-209.5 -150.5t-272.5 -54q-152 0 -274.5 54t-208.5 150.5t-133.5 226.5t-47.5 283.5zM207 698q0 -131 41 -244.5 t114.5 -198.5t177 -133t230.5 -48q129 0 233.5 48t177 133t112.5 198.5t40 244.5q0 133 -40 248t-113.5 199t-178 132t-231.5 48q-129 0 -233.5 -49t-178 -133t-112.5 -199t-39 -246zM512 514v348q0 113 69.5 187.5t192.5 74.5q88 0 154.5 -47t89.5 -133l-92 -37 q-14 53 -53 87t-99 34q-80 0 -121 -49t-41 -113v-356q0 -66 41 -116t121 -50q57 0 97 34t53 89l96 -35q-23 -86 -90.5 -134t-155.5 -48q-123 0 -192.5 73.5t-69.5 190.5z" />
<glyph unicode="&#xaa;" horiz-adv-x="589" d="M41 760q0 39 11 76.5t38 65.5t67 45.5t99 17.5h170v79q0 49 -29.5 78t-105.5 29q-92 0 -139 -70l-84 49q31 53 89 85t136 32q51 0 95 -9t77 -32.5t50 -62.5t17 -99v-473h-106v66q-33 -37 -79 -55.5t-99 -18.5q-104 0 -155.5 55.5t-51.5 141.5zM143 764q0 -49 33 -78 t98 -29q59 0 105.5 27t46.5 90v100h-147q-59 0 -97.5 -25.5t-38.5 -84.5z" />
<glyph unicode="&#xab;" horiz-adv-x="839" d="M96 469l234 373h127l-232 -373l232 -375h-127zM399 469l236 373h125l-230 -373l230 -375h-127z" />
<glyph unicode="&#xac;" d="M41 543v102h788l-2 -465h-100v363h-686z" />
<glyph unicode="&#xad;" horiz-adv-x="733" d="M104 481v115h535v-115h-535z" />
<glyph unicode="&#xae;" horiz-adv-x="1064" d="M125 1005.5q0 94.5 28.5 175.5t83 139t129 92t167 34t166 -34t127 -92t82 -139t28.5 -175.5t-28.5 -174t-82 -138t-128 -91.5t-165.5 -33q-92 0 -166.5 33t-129 91.5t-83 138t-28.5 174zM197 1008q0 -82 23.5 -151t67.5 -119t106.5 -77.5t137.5 -27.5q78 0 140.5 28.5 t105.5 80t65.5 119t22.5 147t-23.5 148.5t-67.5 119t-105.5 79.5t-137.5 29.5q-78 0 -140 -29.5t-105 -79.5t-66.5 -118.5t-23.5 -148.5zM385 743v521h152q74 0 119.5 -36t45.5 -114q0 -47 -22.5 -85t-67.5 -56l53 -114l50 -116h-80l-94 222h-84v-222h-72zM457 1026h82 q41 0 66.5 20.5t25.5 67.5q0 49 -30 66.5t-81 17.5h-63v-172z" />
<glyph unicode="&#xaf;" horiz-adv-x="856" d="M207 1204v121h489v-121h-489z" />
<glyph unicode="&#xb0;" horiz-adv-x="671" d="M109 1202q0 47 18 89t49 73t73 49.5t91 18.5t91 -18.5t73 -49.5t49 -73t18 -89q0 -49 -18 -91t-49 -72.5t-73 -49t-91 -18.5t-91 18.5t-73 49t-49 72.5t-18 91zM193 1202q0 -63 44 -106t103 -43q61 0 103 43t42 106q0 61 -42 104.5t-103 43.5q-59 0 -103 -43.5 t-44 -104.5z" />
<glyph unicode="&#xb1;" d="M49 20v103h780v-103h-780zM49 565v101h340v350h98v-350h342v-101h-342v-350h-98v350h-340z" />
<glyph unicode="&#xb2;" horiz-adv-x="552" d="M47 760v86l307 436q25 33 34 63.5t9 65.5q0 45 -26.5 79t-91.5 34q-49 0 -84 -34t-41 -99l-105 14q10 98 71.5 155.5t160.5 57.5q109 0 167 -54.5t58 -150.5q0 -45 -15.5 -92t-46.5 -90l-270 -375h324v-96h-451z" />
<glyph unicode="&#xb3;" horiz-adv-x="552" d="M47 940l105 12q4 -53 33.5 -83.5t82.5 -30.5q76 0 102.5 49t26.5 119q0 68 -29.5 107.5t-95.5 39.5h-61v90h57q66 0 94.5 37t28.5 100q0 61 -26.5 100.5t-92.5 39.5q-47 0 -79.5 -31t-42.5 -84l-103 16q12 84 71.5 138.5t155.5 54.5q123 0 173.5 -65.5t50.5 -157.5 q0 -49 -15.5 -102.5t-74.5 -86.5q63 -33 78.5 -86t15.5 -119q0 -109 -55.5 -179t-180.5 -70q-92 0 -150.5 46t-68.5 146z" />
<glyph unicode="&#xb4;" horiz-adv-x="856" d="M348 1171l148 332l127 -43l-197 -321z" />
<glyph unicode="&#xb5;" horiz-adv-x="915" d="M117 -414v1424h129v-633q0 -117 50 -189.5t163 -72.5q59 0 101 23.5t67.5 64.5t38 96t12.5 117v594h125v-1010h-125v121h-6q-43 -70 -111.5 -100.5t-144.5 -30.5q-104 0 -168 57v-94q0 -63 -1 -135t-1 -136v-96h-129z" />
<glyph unicode="&#x3bc;" horiz-adv-x="915" d="M117 -414v1424h129v-633q0 -117 50 -189.5t163 -72.5q59 0 101 23.5t67.5 64.5t38 96t12.5 117v594h125v-1010h-125v121h-6q-43 -70 -111.5 -100.5t-144.5 -30.5q-104 0 -168 57v-94q0 -63 -1 -135t-1 -136v-96h-129z" />
<glyph unicode="&#xb6;" horiz-adv-x="958" d="M74 1071q0 63 15 133t54 127.5t107.5 94t175.5 36.5h455v-108h-93v-1520h-108v1520h-158v-1520h-106v864q-82 4 -145.5 35t-107.5 82t-66.5 116.5t-22.5 139.5z" />
<glyph unicode="&#xb7;" horiz-adv-x="378" d="M113 467v168h153v-168h-153z" />
<glyph unicode="&#xb8;" horiz-adv-x="874" d="M260 -381l25 64q37 -16 71.5 -21.5t61.5 -5.5q37 0 67.5 20.5t30.5 63.5q0 41 -33.5 65.5t-87.5 24.5h-14l-35 29l55 182q18 -2 36 -3t36 -1l-43 -139q53 -2 88 -18.5t55.5 -40t28.5 -50.5t8 -49q0 -25 -10 -51.5t-31.5 -49t-55.5 -37t-83 -14.5q-23 0 -72 4t-98 27z" />
<glyph unicode="&#xb9;" horiz-adv-x="460" d="M90 1415v107l137 92h99v-854h-103v741z" />
<glyph unicode="&#xba;" horiz-adv-x="606" d="M51 901q0 66 7.5 121t31.5 98q33 59 82 93t135 34q82 0 133.5 -31.5t79.5 -80.5q35 -63 35 -228q0 -76 -7 -127t-24 -92q-29 -66 -90 -96.5t-133 -30.5q-86 0 -138 32t-79 85q-20 41 -26.5 100.5t-6.5 122.5zM156 891q0 -59 7 -99t19 -65q16 -35 45 -53.5t76 -18.5 q90 0 127 78q12 25 16.5 70t4.5 106q0 59 -5.5 98.5t-13.5 61.5q-29 82 -127 82q-35 0 -65.5 -13.5t-49.5 -41.5q-16 -23 -25 -77t-9 -128z" />
<glyph unicode="&#xbb;" horiz-adv-x="839" d="M96 94l230 375l-230 373h127l236 -373l-236 -375h-127zM401 94l232 375l-232 373h125l236 -373l-236 -375h-125z" />
<glyph unicode="&#xbc;" horiz-adv-x="1269" d="M109 1227v106l137 92h98v-854h-102v742zM152 -35l755 1497h97l-758 -1497h-94zM647 131v88l258 635h111l-258 -629h225v242h104v-242h74v-94h-74v-131h-104v131h-336z" />
<glyph unicode="&#xbd;" horiz-adv-x="1269" d="M92 1227v106l137 92h99v-854h-103v742zM133 -35l756 1497h96l-758 -1497h-94zM717 0v86l307 436q25 35 34 65.5t9 65.5q0 43 -26.5 78t-92.5 35q-49 0 -84 -35t-41 -100l-104 16q10 96 71.5 153.5t159.5 57.5q109 0 167.5 -54t58.5 -151q0 -94 -62 -182l-270 -375h323 v-96h-450z" />
<glyph unicode="&#xbe;" horiz-adv-x="1269" d="M55 756l105 12q4 -53 33.5 -84t82.5 -31q76 0 103 49.5t27 118.5q0 68 -30 108t-95 40h-62v90h57q66 0 94.5 37t28.5 100q0 61 -26.5 100t-91.5 39q-47 0 -80 -30.5t-43 -83.5l-103 16q12 84 71.5 138.5t156.5 54.5q123 0 173 -66t50 -158q0 -49 -15.5 -102t-74.5 -86 q63 -33 78.5 -86t15.5 -119q0 -109 -55.5 -179.5t-180.5 -70.5q-92 0 -150.5 46.5t-68.5 146.5zM231 -35l756 1497h96l-757 -1497h-95zM700 131v88l258 635h111l-258 -629h225v242h105v-242h73v-94h-73v-131h-105v131h-336z" />
<glyph unicode="&#xbf;" horiz-adv-x="847" d="M117 -82q2 94 31.5 158.5t76.5 132.5q25 37 54.5 75t55 76.5t42 78.5t16.5 83v133h129v-118q0 -115 -65 -215q-35 -53 -71 -100.5t-65.5 -92.5t-49 -89t-19.5 -91q0 -43 9 -89t33.5 -83t68 -60.5t112.5 -23.5q51 0 92 20.5t71 54t47 75.5t20 87l131 -18 q-12 -86 -45 -149.5t-82.5 -106.5t-110.5 -64.5t-131 -21.5q-174 0 -262 97t-88 251zM389 856v148h139v-148h-139z" />
<glyph unicode="&#xc0;" horiz-adv-x="1001" d="M20 0l416 1425h129l416 -1425h-137l-96 342h-496l-96 -342h-136zM178 1706l96 100l289 -235l-59 -66zM281 461h436l-125 440l-88 332h-8l-17 -64l-26 -102l-28 -103l-17 -63q-6 -25 -25 -87l-38 -133l-38 -133q-18 -62 -26 -87z" />
<glyph unicode="&#xc1;" horiz-adv-x="1001" d="M20 0l416 1425h129l416 -1425h-137l-96 342h-496l-96 -342h-136zM281 461h436l-125 440l-88 332h-8l-17 -64l-26 -102l-28 -103l-17 -63q-6 -25 -25 -87l-38 -133l-38 -133q-18 -62 -26 -87zM442 1552l285 230l90 -99l-319 -194z" />
<glyph unicode="&#xc2;" horiz-adv-x="1001" d="M20 0l416 1425h129l416 -1425h-137l-96 342h-496l-96 -342h-136zM193 1554l270 234h86l258 -232l-51 -55l-256 164l-256 -164zM281 461h436l-125 440l-88 332h-8l-17 -64l-26 -102l-28 -103l-17 -63q-6 -25 -25 -87l-38 -133l-38 -133q-18 -62 -26 -87z" />
<glyph unicode="&#xc3;" horiz-adv-x="1001" d="M20 0l416 1425h129l416 -1425h-137l-96 342h-496l-96 -342h-136zM184 1591q35 66 84 107t103 41q33 0 64.5 -13.5t62 -29t61.5 -28.5t59 -13q55 0 113 84l74 -45q-37 -78 -84 -114t-98 -36q-33 0 -65 12.5t-63.5 27.5l-62.5 28.5t-57 13.5q-57 0 -117 -76zM281 461h436 l-125 440l-88 332h-8l-17 -64l-26 -102l-28 -103l-17 -63q-6 -25 -25 -87l-38 -133l-38 -133q-18 -62 -26 -87z" />
<glyph unicode="&#xc4;" horiz-adv-x="1001" d="M20 0l416 1425h129l416 -1425h-137l-96 342h-496l-96 -342h-136zM262 1532v137h133v-137h-133zM281 461h436l-125 440l-88 332h-8l-17 -64l-26 -102l-28 -103l-17 -63q-6 -25 -25 -87l-38 -133l-38 -133q-18 -62 -26 -87zM600 1532v137h131v-137h-131z" />
<glyph unicode="&#xc5;" horiz-adv-x="1001" d="M20 0l416 1425h129l416 -1425h-137l-96 342h-496l-96 -342h-136zM281 461h436l-125 440l-88 332h-8l-17 -64l-26 -102l-28 -103l-17 -63q-6 -25 -25 -87l-38 -133l-38 -133q-18 -62 -26 -87zM322 1645q0 37 13 68.5t37.5 55t56.5 38t69 14.5q35 0 65.5 -14.5t54 -38 t37 -55.5t13.5 -68q0 -70 -50.5 -120t-119.5 -50q-74 0 -125 50t-51 120zM391 1645q0 -41 31 -70t76 -29q41 0 71.5 29t30.5 70q0 45 -30.5 74.5t-71.5 29.5q-45 0 -76 -29.5t-31 -74.5z" />
<glyph unicode="&#xc6;" horiz-adv-x="1611" d="M10 0l365 713l366 712h805v-122h-608v-519h524v-118h-524v-541h608v-125h-739v389h-459l-201 -389h-137zM408 508h399v772l-8 2l-196 -387z" />
<glyph unicode="&#xc7;" horiz-adv-x="948" d="M102 403v619q0 90 28 166t81 131t129 86t172 31q141 0 246.5 -71t140.5 -202l-127 -47q-20 92 -88 143.5t-172 51.5q-66 0 -118 -22.5t-88 -61.5t-54.5 -91.5t-18.5 -111.5v-625q0 -59 19.5 -112.5t55.5 -92t87 -61t117 -22.5q100 0 170 51t92 149l125 -45 q-31 -131 -129 -200.5t-233 -75.5l-27 -92q53 -2 88 -18.5t55.5 -40t28.5 -50.5t8 -49q0 -25 -10 -51.5t-31.5 -49t-55.5 -37t-83 -14.5q-23 0 -72 4.5t-98 26.5l25 64q37 -16 71.5 -21.5t61.5 -5.5q37 0 67.5 20.5t30.5 63.5q0 41 -34 65.5t-87 24.5h-14l-35 29l39 131 q-170 14 -266.5 126.5t-96.5 286.5z" />
<glyph unicode="&#xc8;" horiz-adv-x="919" d="M133 0v1425h741v-122h-610v-519h524v-118h-524v-539h610v-127h-741zM203 1706l96 100l289 -235l-60 -66z" />
<glyph unicode="&#xc9;" horiz-adv-x="919" d="M133 0v1425h741v-122h-610v-519h524v-118h-524v-539h610v-127h-741zM362 1552l285 230l90 -99l-319 -194z" />
<glyph unicode="&#xca;" horiz-adv-x="919" d="M133 0v1425h741v-122h-610v-519h524v-118h-524v-539h610v-127h-741zM193 1554l270 234h86l258 -232l-51 -55l-256 164l-256 -164z" />
<glyph unicode="&#xcb;" horiz-adv-x="919" d="M133 0v1425h741v-122h-610v-519h524v-118h-524v-539h610v-127h-741zM268 1567v139h133v-139h-133zM612 1567v139h129v-139h-129z" />
<glyph unicode="&#xcc;" horiz-adv-x="421" d="M-102 1706l96 100l289 -235l-60 -66zM143 0v1425h133v-1425h-133z" />
<glyph unicode="&#xcd;" horiz-adv-x="421" d="M143 0v1425h133v-1425h-133zM154 1552l284 230l90 -99l-319 -194z" />
<glyph unicode="&#xce;" horiz-adv-x="421" d="M-102 1554l270 234h86l258 -232l-51 -55l-256 164l-256 -164zM143 0v1425h133v-1425h-133z" />
<glyph unicode="&#xcf;" horiz-adv-x="421" d="M-29 1567v139h133v-139h-133zM143 0v1425h133v-1425h-133zM315 1567v139h129v-139h-129z" />
<glyph unicode="&#xd0;" horiz-adv-x="1052" d="M14 690v101h117v634h399q293 0 383 -225q25 -70 30 -174t5 -240v-235q0 -98 -5 -177t-28 -136q-27 -70 -68.5 -115t-96 -72.5t-119 -39t-133.5 -11.5h-367v690h-117zM264 121h246q223 0 283 174q12 33 18 76t6 84v485q0 47 -4 97t-18 91q-27 86 -99.5 131.5t-185.5 45.5 h-246v-514h268v-101h-268v-569z" />
<glyph unicode="&#xd1;" horiz-adv-x="1136" d="M131 0v1425h129l48 -90l72 -133l83 -154l82 -154l70 -132q32 -59 51 -90l202 -383l9 2v1134h131v-1425h-129l-410 762l-44 81l-57 107l-58 108l-42 81h-4v-1139h-133zM256 1577q35 66 84 106.5t102 40.5q33 0 65 -13t62.5 -28.5t61.5 -29t59 -13.5q55 0 113 84l74 -45 q-37 -78 -84.5 -113.5t-98.5 -35.5q-33 0 -64.5 12t-63 27.5t-62.5 29t-58 13.5q-57 0 -116 -76z" />
<glyph unicode="&#xd2;" horiz-adv-x="1005" d="M90 424v600q0 78 24.5 151.5t75 132t128 93.5t186.5 35q100 0 176 -34t128 -90.5t78.5 -131t26.5 -156.5v-616q0 -94 -29.5 -171t-84 -132.5t-129 -86t-166.5 -30.5q-106 0 -184 33.5t-129.5 93t-76 139.5t-24.5 170zM221 422q0 -68 17.5 -125t53.5 -99t89 -65.5 t125 -23.5q57 0 107.5 21.5t87 60t57 92t20.5 114.5v625q0 47 -15 98t-48 93t-85 70t-126 28t-127 -25.5t-88 -66.5t-51.5 -93.5t-16.5 -103.5v-600zM227 1706l97 100l288 -235l-59 -66z" />
<glyph unicode="&#xd3;" horiz-adv-x="1005" d="M90 424v600q0 78 24.5 151.5t75 132t128 93.5t186.5 35q100 0 176 -34t128 -90.5t78.5 -131t26.5 -156.5v-616q0 -94 -29.5 -171t-84 -132.5t-129 -86t-166.5 -30.5q-106 0 -184 33.5t-129.5 93t-76 139.5t-24.5 170zM221 422q0 -68 17.5 -125t53.5 -99t89 -65.5 t125 -23.5q57 0 107.5 21.5t87 60t57 92t20.5 114.5v625q0 47 -15 98t-48 93t-85 70t-126 28t-127 -25.5t-88 -66.5t-51.5 -93.5t-16.5 -103.5v-600zM418 1552l284 230l91 -99l-320 -194z" />
<glyph unicode="&#xd4;" horiz-adv-x="1005" d="M90 424v600q0 78 24.5 151.5t75 132t128 93.5t186.5 35q100 0 176 -34t128 -90.5t78.5 -131t26.5 -156.5v-616q0 -94 -29.5 -171t-84 -132.5t-129 -86t-166.5 -30.5q-106 0 -184 33.5t-129.5 93t-76 139.5t-24.5 170zM193 1554l270 234h86l258 -232l-51 -55l-256 164 l-256 -164zM221 422q0 -68 17.5 -125t53.5 -99t89 -65.5t125 -23.5q57 0 107.5 21.5t87 60t57 92t20.5 114.5v625q0 47 -15 98t-48 93t-85 70t-126 28t-127 -25.5t-88 -66.5t-51.5 -93.5t-16.5 -103.5v-600z" />
<glyph unicode="&#xd5;" horiz-adv-x="1005" d="M90 424v600q0 78 24.5 151.5t75 132t128 93.5t186.5 35q100 0 176 -34t128 -90.5t78.5 -131t26.5 -156.5v-616q0 -94 -29.5 -171t-84 -132.5t-129 -86t-166.5 -30.5q-106 0 -184 33.5t-129.5 93t-76 139.5t-24.5 170zM188 1591q35 66 84.5 107t102.5 41q33 0 64.5 -13.5 t62 -29t61.5 -28.5t60 -13q55 0 112 84l74 -45q-37 -78 -84 -114t-98 -36q-33 0 -65 12.5t-63.5 27.5l-62 28.5t-57.5 13.5q-57 0 -117 -76zM221 422q0 -68 17.5 -125t53.5 -99t89 -65.5t125 -23.5q57 0 107.5 21.5t87 60t57 92t20.5 114.5v625q0 47 -15 98t-48 93t-85 70 t-126 28t-127 -25.5t-88 -66.5t-51.5 -93.5t-16.5 -103.5v-600z" />
<glyph unicode="&#xd6;" horiz-adv-x="1005" d="M90 424v600q0 78 24.5 151.5t75 132t128 93.5t186.5 35q100 0 176 -34t128 -90.5t78.5 -131t26.5 -156.5v-616q0 -94 -29.5 -171t-84 -132.5t-129 -86t-166.5 -30.5q-106 0 -184 33.5t-129.5 93t-76 139.5t-24.5 170zM221 422q0 -68 17.5 -125t53.5 -99t89 -65.5 t125 -23.5q57 0 107.5 21.5t87 60t57 92t20.5 114.5v625q0 47 -15 98t-48 93t-85 70t-126 28t-127 -25.5t-88 -66.5t-51.5 -93.5t-16.5 -103.5v-600zM258 1532v137h133v-137h-133zM596 1532v137h131v-137h-131z" />
<glyph unicode="&#xd7;" horiz-adv-x="944" d="M109 276l305 306l-293 292l69 72l293 -293l301 303l72 -71l-303 -303l297 -295l-72 -72l-295 295l-305 -303z" />
<glyph unicode="&#xd8;" horiz-adv-x="1005" d="M80 29l76 135q-35 55 -50.5 120.5t-15.5 139.5v600q0 78 24.5 151.5t75 132t128 93.5t186.5 35q92 0 163.5 -29t123.5 -78l61 109l66 -39l-74 -133q70 -109 69 -242v-616q0 -94 -29.5 -171t-84 -132.5t-129 -86t-166.5 -30.5q-100 0 -175 29.5t-126 82.5l-62 -110l-31 19 q-16 10 -30 20zM221 422q0 -29 3 -57.5t12 -53.5l243 446l244 445q-33 47 -87 78t-132 31q-74 0 -127 -25.5t-88 -66.5t-51.5 -93.5t-16.5 -103.5v-600zM270 225q35 -53 93.5 -84.5t142.5 -31.5q57 0 107.5 21.5t87 60t57 92t20.5 114.5v625q0 51 -14 96l-247 -447z" />
<glyph unicode="&#xd9;" horiz-adv-x="1044" d="M113 399v1026h129v-1026q0 -61 20.5 -113.5t58 -90t89 -60t112.5 -22.5q119 0 199 74.5t80 209.5v1028h133v-1028q0 -96 -32 -171.5t-87 -129t-130 -81t-163 -27.5q-92 0 -166.5 29.5t-129 83t-84 130t-29.5 168.5zM254 1706l96 100l289 -235l-59 -66z" />
<glyph unicode="&#xda;" horiz-adv-x="1044" d="M113 399v1026h129v-1026q0 -61 20.5 -113.5t58 -90t89 -60t112.5 -22.5q119 0 199 74.5t80 209.5v1028h133v-1028q0 -96 -32 -171.5t-87 -129t-130 -81t-163 -27.5q-92 0 -166.5 29.5t-129 83t-84 130t-29.5 168.5zM395 1552l285 230l90 -99l-319 -194z" />
<glyph unicode="&#xdb;" horiz-adv-x="1044" d="M113 399v1026h129v-1026q0 -61 20.5 -113.5t58 -90t89 -60t112.5 -22.5q119 0 199 74.5t80 209.5v1028h133v-1028q0 -96 -32 -171.5t-87 -129t-130 -81t-163 -27.5q-92 0 -166.5 29.5t-129 83t-84 130t-29.5 168.5zM217 1554l270 234h86l258 -232l-51 -55l-256 164 l-256 -164z" />
<glyph unicode="&#xdc;" horiz-adv-x="1044" d="M113 399v1026h129v-1026q0 -61 20.5 -113.5t58 -90t89 -60t112.5 -22.5q119 0 199 74.5t80 209.5v1028h133v-1028q0 -96 -32 -171.5t-87 -129t-130 -81t-163 -27.5q-92 0 -166.5 29.5t-129 83t-84 130t-29.5 168.5zM293 1532v137h133v-137h-133zM631 1532v137h131v-137 h-131z" />
<glyph unicode="&#xdd;" horiz-adv-x="876" d="M14 1425h138l84 -201l83 -200q29 -68 56.5 -140.5t56.5 -140.5l139 328l148 354h135l-356 -831v-594h-127v594zM328 1552l284 230l90 -99l-319 -194z" />
<glyph unicode="&#xde;" horiz-adv-x="978" d="M133 0v1466h133l-4 -317h270q195 0 301.5 -103.5t106.5 -314.5q0 -82 -21.5 -157.5t-69.5 -133t-125 -92.5t-185 -35h-277l4 -313h-133zM262 436h268q78 0 131.5 23.5t85 64.5t46 94.5t14.5 114.5q0 135 -67.5 213t-211.5 78h-266v-588z" />
<glyph unicode="&#xdf;" horiz-adv-x="901" d="M109 0v1100q0 176 81.5 281.5t253.5 105.5q160 0 242 -94.5t82 -241.5q0 -43 -7 -87t-23.5 -83t-44 -68.5t-68.5 -48.5v-2q61 -23 96 -62.5t53.5 -92t23.5 -114t5 -126.5q0 -88 -11.5 -173t-45 -152.5t-96 -108.5t-167.5 -41h-63v104h43q76 0 118 34t62.5 86t24.5 117.5 t4 127.5q0 70 -7.5 132t-31 108.5t-68.5 73t-119 26.5v110h19q51 0 84 20.5t53.5 52.5t28.5 72t8 81q0 100 -48 167.5t-153 67.5q-66 0 -105.5 -24.5t-61 -63.5t-28.5 -87t-7 -95v-1102h-127z" />
<glyph unicode="&#xe0;" horiz-adv-x="856" d="M70 279q0 63 19.5 120.5t60 98.5t104 65.5t152.5 24.5h225v139q0 82 -50.5 129t-152.5 47q-70 0 -127 -23.5t-88 -76.5q-23 12 -49 31l-49 32q43 74 122.5 116t190.5 42q70 0 131.5 -14.5t106.5 -49t70.5 -92t25.5 -143.5v-725h-131v84l-6 2q-41 -55 -111 -76.5 t-149 -21.5q-145 0 -220 83t-75 208zM190 287q0 -80 53.5 -130.5t157.5 -50.5q45 0 86 10.5t73 32t51.5 57.5t19.5 89v180h-230q-92 0 -151.5 -45t-59.5 -143zM246 1460l129 43l145 -332l-78 -32z" />
<glyph unicode="&#xe1;" horiz-adv-x="856" d="M70 279q0 63 19.5 120.5t60 98.5t104 65.5t152.5 24.5h225v139q0 82 -50.5 129t-152.5 47q-70 0 -127 -23.5t-88 -76.5q-23 12 -49 31l-49 32q43 74 122.5 116t190.5 42q70 0 131.5 -14.5t106.5 -49t70.5 -92t25.5 -143.5v-725h-131v84l-6 2q-41 -55 -111 -76.5 t-149 -21.5q-145 0 -220 83t-75 208zM190 287q0 -80 53.5 -130.5t157.5 -50.5q45 0 86 10.5t73 32t51.5 57.5t19.5 89v180h-230q-92 0 -151.5 -45t-59.5 -143zM414 1171l147 332l127 -43l-196 -321z" />
<glyph unicode="&#xe2;" horiz-adv-x="856" d="M70 279q0 63 19.5 120.5t60 98.5t104 65.5t152.5 24.5h225v139q0 82 -50.5 129t-152.5 47q-70 0 -127 -23.5t-88 -76.5q-23 12 -49 31l-49 32q43 74 122.5 116t190.5 42q70 0 131.5 -14.5t106.5 -49t70.5 -92t25.5 -143.5v-725h-131v84l-6 2q-41 -55 -111 -76.5 t-149 -21.5q-145 0 -220 83t-75 208zM129 1186l270 274h86l258 -270l-59 -55l-248 200l-248 -202zM190 287q0 -80 53.5 -130.5t157.5 -50.5q45 0 86 10.5t73 32t51.5 57.5t19.5 89v180h-230q-92 0 -151.5 -45t-59.5 -143z" />
<glyph unicode="&#xe3;" horiz-adv-x="856" d="M70 279q0 63 19.5 120.5t60 98.5t104 65.5t152.5 24.5h225v139q0 82 -50.5 129t-152.5 47q-70 0 -127 -23.5t-88 -76.5q-23 12 -49 31l-49 32q43 74 122.5 116t190.5 42q70 0 131.5 -14.5t106.5 -49t70.5 -92t25.5 -143.5v-725h-131v84l-6 2q-41 -55 -111 -76.5 t-149 -21.5q-145 0 -220 83t-75 208zM133 1243q35 66 84 107t102 41q33 0 65 -13.5t62.5 -29t61.5 -28.5t59 -13q55 0 113 84l74 -45q-37 -78 -84 -114t-99 -36q-33 0 -64.5 12.5t-63 27.5l-62.5 28.5t-57 13.5q-57 0 -117 -76zM190 287q0 -80 53.5 -130.5t157.5 -50.5 q45 0 86 10.5t73 32t51.5 57.5t19.5 89v180h-230q-92 0 -151.5 -45t-59.5 -143z" />
<glyph unicode="&#xe4;" horiz-adv-x="856" d="M70 279q0 63 19.5 120.5t60 98.5t104 65.5t152.5 24.5h225v139q0 82 -50.5 129t-152.5 47q-70 0 -127 -23.5t-88 -76.5q-23 12 -49 31l-49 32q43 74 122.5 116t190.5 42q70 0 131.5 -14.5t106.5 -49t70.5 -92t25.5 -143.5v-725h-131v84l-6 2q-41 -55 -111 -76.5 t-149 -21.5q-145 0 -220 83t-75 208zM190 287q0 -80 53.5 -130.5t157.5 -50.5q45 0 86 10.5t73 32t51.5 57.5t19.5 89v180h-230q-92 0 -151.5 -45t-59.5 -143zM199 1219v139h133v-139h-133zM543 1219v139h129v-139h-129z" />
<glyph unicode="&#xe5;" horiz-adv-x="856" d="M70 279q0 63 19.5 120.5t60 98.5t104 65.5t152.5 24.5h225v139q0 82 -50.5 129t-152.5 47q-70 0 -127 -23.5t-88 -76.5q-23 12 -49 31l-49 32q43 74 122.5 116t190.5 42q70 0 131.5 -14.5t106.5 -49t70.5 -92t25.5 -143.5v-725h-131v84l-6 2q-41 -55 -111 -76.5 t-149 -21.5q-145 0 -220 83t-75 208zM190 287q0 -80 53.5 -130.5t157.5 -50.5q45 0 86 10.5t73 32t51.5 57.5t19.5 89v180h-230q-92 0 -151.5 -45t-59.5 -143zM266 1300q0 37 13.5 69t38 55.5t56.5 38t68 14.5q35 0 66 -14.5t54.5 -38t36.5 -55.5t13 -69q0 -70 -50 -120 t-120 -50q-74 0 -125 50t-51 120zM336 1300q0 -41 30.5 -69.5t75.5 -28.5q41 0 72 29t31 69q0 45 -31 75t-72 30q-45 0 -75.5 -30t-30.5 -75z" />
<glyph unicode="&#xe6;" horiz-adv-x="1413" d="M68 276q0 143 85 227.5t259 84.5h219v139q0 82 -50.5 129t-154.5 47q-63 0 -121.5 -22.5t-91.5 -77.5l-49 33l-49 32q47 78 129 117t180 39q100 0 179 -29.5t120 -107.5q41 70 108.5 103.5t157.5 33.5q92 0 158.5 -31.5t108.5 -88t61.5 -133.5t19.5 -169v-127h-573 q0 -72 8 -138.5t33.5 -119.5t73 -85t125.5 -32q66 0 116.5 33t79.5 84l103 -57q-41 -86 -118 -129t-175 -43q-109 0 -190 37.5t-124 128.5q-74 -94 -157.5 -130t-176.5 -36q-145 0 -219.5 82.5t-74.5 205.5zM190 285q0 -80 52.5 -129.5t159 -49.5t168 54.5t61.5 150.5v164 h-230q-41 0 -78.5 -9t-67.5 -31.5t-47.5 -58.5t-17.5 -91zM768 582h442q0 68 -11 126t-36.5 102t-67.5 68.5t-104 24.5q-66 0 -107.5 -24.5t-67 -68.5t-36 -102t-12.5 -126z" />
<glyph unicode="&#xe7;" horiz-adv-x="776" d="M66 520q0 106 19 198.5t63.5 160t116 106.5t175.5 39q111 0 185.5 -48t113.5 -134l-108 -64q-23 57 -72 91t-117 34q-80 0 -129 -31.5t-74.5 -85t-34.5 -123t-9 -145.5t8 -149.5t34.5 -132t74.5 -94.5t126 -36q70 0 119 34t72 85q27 -16 53 -29l55 -28 q-35 -82 -107.5 -129t-172.5 -51l-27 -90q53 -2 88 -18.5t55.5 -40t28.5 -50.5t8 -49q0 -25 -10 -51.5t-31.5 -49t-55.5 -37t-83 -14.5q-23 0 -72 4.5t-98 26.5l25 64q37 -16 71.5 -21.5t61.5 -5.5q37 0 67.5 20.5t30.5 63.5q0 41 -33.5 65.5t-87.5 24.5h-14l-35 29l39 133 q-98 8 -159.5 51t-97.5 112.5t-49 162.5t-13 202z" />
<glyph unicode="&#xe8;" horiz-adv-x="851" d="M76 512q0 96 14 188.5t54 164t109 115.5t177 44q92 0 158.5 -31.5t108.5 -88t61.5 -134.5t19.5 -170v-127h-575q0 -84 10 -151.5t38 -116.5t74 -76t119 -27q66 0 119 37t78 90l109 -55q-39 -88 -119 -137t-180 -49q-109 0 -180.5 31.5t-114.5 97t-61.5 164t-18.5 231.5z M207 578h442v4q0 70 -9 129t-32.5 102t-65.5 66.5t-110 23.5q-66 0 -108.5 -24.5t-68.5 -68.5t-36 -103t-12 -129zM240 1460l129 43l145 -332l-78 -32z" />
<glyph unicode="&#xe9;" horiz-adv-x="851" d="M76 512q0 96 14 188.5t54 164t109 115.5t177 44q92 0 158.5 -31.5t108.5 -88t61.5 -134.5t19.5 -170v-127h-575q0 -84 10 -151.5t38 -116.5t74 -76t119 -27q66 0 119 37t78 90l109 -55q-39 -88 -119 -137t-180 -49q-109 0 -180.5 31.5t-114.5 97t-61.5 164t-18.5 231.5z M207 578h442v4q0 70 -9 129t-32.5 102t-65.5 66.5t-110 23.5q-66 0 -108.5 -24.5t-68.5 -68.5t-36 -103t-12 -129zM358 1171l148 332l127 -43l-197 -321z" />
<glyph unicode="&#xea;" horiz-adv-x="851" d="M76 512q0 96 14 188.5t54 164t109 115.5t177 44q92 0 158.5 -31.5t108.5 -88t61.5 -134.5t19.5 -170v-127h-575q0 -84 10 -151.5t38 -116.5t74 -76t119 -27q66 0 119 37t78 90l109 -55q-39 -88 -119 -137t-180 -49q-109 0 -180.5 31.5t-114.5 97t-61.5 164t-18.5 231.5z M131 1186l270 274h86l258 -270l-59 -55l-248 200l-248 -202zM207 578h442v4q0 70 -9 129t-32.5 102t-65.5 66.5t-110 23.5q-66 0 -108.5 -24.5t-68.5 -68.5t-36 -103t-12 -129z" />
<glyph unicode="&#xeb;" horiz-adv-x="851" d="M76 512q0 96 14 188.5t54 164t109 115.5t177 44q92 0 158.5 -31.5t108.5 -88t61.5 -134.5t19.5 -170v-127h-575q0 -84 10 -151.5t38 -116.5t74 -76t119 -27q66 0 119 37t78 90l109 -55q-39 -88 -119 -137t-180 -49q-109 0 -180.5 31.5t-114.5 97t-61.5 164t-18.5 231.5z M195 1219v139h133v-139h-133zM207 578h442v4q0 70 -9 129t-32.5 102t-65.5 66.5t-110 23.5q-66 0 -108.5 -24.5t-68.5 -68.5t-36 -103t-12 -129zM539 1219v139h129v-139h-129z" />
<glyph unicode="&#xec;" horiz-adv-x="382" d="M-41 1460l129 43l145 -332l-77 -32zM127 0v1012h129v-1012h-129z" />
<glyph unicode="&#xed;" horiz-adv-x="382" d="M127 0v1012h129v-1012h-129zM131 1171l148 332l127 -43l-197 -321z" />
<glyph unicode="&#xee;" horiz-adv-x="532" d="M-41 1186l270 274h86l258 -270l-59 -55l-248 200l-248 -202zM199 0v1012h129v-1012h-129z" />
<glyph unicode="&#xef;" horiz-adv-x="411" d="M-31 1219v139h133v-139h-133zM141 0v1012h129v-1012h-129zM313 1219v139h129v-139h-129z" />
<glyph unicode="&#xf0;" horiz-adv-x="886" d="M74 461q0 92 11 172t30 127q35 94 115.5 149.5t193.5 55.5q29 0 62.5 -7.5t66.5 -22.5t62.5 -40t50.5 -59h6q0 43 -3 89t-11.5 91t-20.5 86t-31 72l-143 -103l-43 59l145 107q-41 53 -111.5 87t-160.5 48l18 115q82 -10 138.5 -29.5t96.5 -42t67.5 -49.5t50.5 -53 l139 100l47 -59l-143 -105q33 -61 50 -129.5t25.5 -144.5t10.5 -157l4 -169q0 -102 -4.5 -176t-11.5 -129t-18 -96t-28 -76q-41 -88 -116.5 -136t-200.5 -48q-129 0 -209 57q-74 55 -104.5 158.5t-30.5 257.5zM201 467q0 -135 20.5 -212t73.5 -118q51 -39 131 -39 q66 0 116 28t79 93q41 90 40 270q0 94 -11 151.5t-27 94.5q-55 115 -193 115q-55 0 -103 -22.5t-79 -79.5q-23 -43 -34 -109t-13 -172z" />
<glyph unicode="&#xf1;" horiz-adv-x="886" d="M98 0v1012h129v-125h6q43 70 111 103.5t145 33.5q135 0 216 -84t81 -225v-715h-129v672q0 104 -54 163.5t-159 59.5q-98 0 -157.5 -65.5t-59.5 -170.5v-659h-129zM111 1243q35 66 84 107t102 41q33 0 64.5 -13.5t62.5 -29t61.5 -28.5t59.5 -13q55 0 112 84l74 -45 q-37 -78 -84 -114t-98 -36q-33 0 -64.5 12.5t-63.5 27.5l-62.5 28.5t-57.5 13.5q-57 0 -117 -76z" />
<glyph unicode="&#xf2;" horiz-adv-x="878" d="M82 500q0 98 8 183t31 142q39 96 122 147.5t201 51.5q102 0 171 -40t110 -103q39 -53 53.5 -155.5t14.5 -221.5q0 -37 -2.5 -81t-7.5 -88t-12 -83t-15 -66q-39 -111 -128 -155.5t-200 -44.5q-104 0 -171 38.5t-103 100.5q-41 55 -56.5 152.5t-15.5 222.5zM209 485.5 q0 -104.5 10 -175t39 -111.5q55 -96 178 -97q68 0 123 34t80 106q16 41 20.5 113.5t4.5 158.5q0 92 -7.5 160.5t-23.5 105.5q-25 63 -75 95t-118 32q-66 0 -117 -29.5t-79 -89.5q-23 -41 -29 -119.5t-6 -183zM221 1460l129 43l146 -332l-78 -32z" />
<glyph unicode="&#xf3;" horiz-adv-x="878" d="M82 500q0 98 8 183t31 142q39 96 122 147.5t201 51.5q102 0 171 -40t110 -103q39 -53 53.5 -155.5t14.5 -221.5q0 -37 -2.5 -81t-7.5 -88t-12 -83t-15 -66q-39 -111 -128 -155.5t-200 -44.5q-104 0 -171 38.5t-103 100.5q-41 55 -56.5 152.5t-15.5 222.5zM209 485.5 q0 -104.5 10 -175t39 -111.5q55 -96 178 -97q68 0 123 34t80 106q16 41 20.5 113.5t4.5 158.5q0 92 -7.5 160.5t-23.5 105.5q-25 63 -75 95t-118 32q-66 0 -117 -29.5t-79 -89.5q-23 -41 -29 -119.5t-6 -183zM363 1171l147 332l127 -43l-197 -321z" />
<glyph unicode="&#xf4;" horiz-adv-x="878" d="M82 500q0 98 8 183t31 142q39 96 122 147.5t201 51.5q102 0 171 -40t110 -103q39 -53 53.5 -155.5t14.5 -221.5q0 -37 -2.5 -81t-7.5 -88t-12 -83t-15 -66q-39 -111 -128 -155.5t-200 -44.5q-104 0 -171 38.5t-103 100.5q-41 55 -56.5 152.5t-15.5 222.5zM131 1186 l270 274h86l258 -270l-59 -55l-248 200l-248 -202zM209 485.5q0 -104.5 10 -175t39 -111.5q55 -96 178 -97q68 0 123 34t80 106q16 41 20.5 113.5t4.5 158.5q0 92 -7.5 160.5t-23.5 105.5q-25 63 -75 95t-118 32q-66 0 -117 -29.5t-79 -89.5q-23 -41 -29 -119.5t-6 -183z " />
<glyph unicode="&#xf5;" horiz-adv-x="878" d="M82 500q0 98 8 183t31 142q39 96 122 147.5t201 51.5q102 0 171 -40t110 -103q39 -53 53.5 -155.5t14.5 -221.5q0 -37 -2.5 -81t-7.5 -88t-12 -83t-15 -66q-39 -111 -128 -155.5t-200 -44.5q-104 0 -171 38.5t-103 100.5q-41 55 -56.5 152.5t-15.5 222.5zM129 1243 q35 66 84 107t102 41q33 0 65 -13.5t62.5 -29t61.5 -28.5t59 -13q55 0 113 84l74 -45q-37 -78 -84 -114t-99 -36q-33 0 -64.5 12.5t-63 27.5l-62.5 28.5t-58 13.5q-57 0 -116 -76zM209 485.5q0 -104.5 10 -175t39 -111.5q55 -96 178 -97q68 0 123 34t80 106 q16 41 20.5 113.5t4.5 158.5q0 92 -7.5 160.5t-23.5 105.5q-25 63 -75 95t-118 32q-66 0 -117 -29.5t-79 -89.5q-23 -41 -29 -119.5t-6 -183z" />
<glyph unicode="&#xf6;" horiz-adv-x="878" d="M82 500q0 98 8 183t31 142q39 96 122 147.5t201 51.5q102 0 171 -40t110 -103q39 -53 53.5 -155.5t14.5 -221.5q0 -37 -2.5 -81t-7.5 -88t-12 -83t-15 -66q-39 -111 -128 -155.5t-200 -44.5q-104 0 -171 38.5t-103 100.5q-41 55 -56.5 152.5t-15.5 222.5zM199 1219v139 h133v-139h-133zM209 485.5q0 -104.5 10 -175t39 -111.5q55 -96 178 -97q68 0 123 34t80 106q16 41 20.5 113.5t4.5 158.5q0 92 -7.5 160.5t-23.5 105.5q-25 63 -75 95t-118 32q-66 0 -117 -29.5t-79 -89.5q-23 -41 -29 -119.5t-6 -183zM543 1219v139h129v-139h-129z" />
<glyph unicode="&#xf7;" d="M41 543v102h793v-102h-793zM346 256q0 41 27.5 67.5t66.5 26.5q37 0 66 -26.5t29 -67.5t-28 -67.5t-67 -26.5q-41 0 -67.5 26.5t-26.5 67.5zM346 930q0 39 27.5 65.5t66.5 26.5q37 0 66 -26.5t29 -65.5t-28 -66.5t-67 -27.5q-41 0 -67.5 27.5t-26.5 66.5z" />
<glyph unicode="&#xf8;" horiz-adv-x="878" d="M82 43l63 94q-35 57 -49 150.5t-14 212.5q0 98 8 183t31 142q39 96 122 147.5t201 51.5q78 0 136.5 -24.5t99.5 -65.5l61 90l66 -45l-76 -111q35 -55 48.5 -153.5t13.5 -210.5q0 -37 -2.5 -81t-7.5 -88t-12 -83t-15 -66q-39 -111 -128 -155.5t-200 -44.5 q-80 0 -137.5 22.5t-97.5 63.5l-50 -74zM209 485q0 -143 20 -223l379 563q-59 82 -168 82q-66 0 -117 -29.5t-79 -89.5q-23 -41 -29 -120t-6 -183zM268 182q55 -80 168 -80q68 0 123 34t80 106q16 41 20.5 113.5t4.5 158.5q0 70 -4.5 127t-14.5 98z" />
<glyph unicode="&#xf9;" horiz-adv-x="901" d="M102 295v717h129v-674q0 -104 56.5 -165.5t156.5 -61.5q98 0 158 67.5t60 173.5v660h126v-1012h-126v123h-7q-43 -72 -111.5 -103.5t-144.5 -31.5q-135 0 -216 83t-81 224zM244 1460l129 43l145 -332l-78 -32z" />
<glyph unicode="&#xfa;" horiz-adv-x="901" d="M102 295v717h129v-674q0 -104 56.5 -165.5t156.5 -61.5q98 0 158 67.5t60 173.5v660h126v-1012h-126v123h-7q-43 -72 -111.5 -103.5t-144.5 -31.5q-135 0 -216 83t-81 224zM373 1171l147 332l127 -43l-196 -321z" />
<glyph unicode="&#xfb;" horiz-adv-x="901" d="M102 295v717h129v-674q0 -104 56.5 -165.5t156.5 -61.5q98 0 158 67.5t60 173.5v660h126v-1012h-126v123h-7q-43 -72 -111.5 -103.5t-144.5 -31.5q-135 0 -216 83t-81 224zM137 1186l271 274h86l258 -270l-60 -55l-248 200l-247 -202z" />
<glyph unicode="&#xfc;" horiz-adv-x="901" d="M102 295v717h129v-674q0 -104 56.5 -165.5t156.5 -61.5q98 0 158 67.5t60 173.5v660h126v-1012h-126v123h-7q-43 -72 -111.5 -103.5t-144.5 -31.5q-135 0 -216 83t-81 224zM199 1219v139h133v-139h-133zM543 1219v139h129v-139h-129z" />
<glyph unicode="&#xfd;" horiz-adv-x="768" d="M6 1010h137l66 -214l65 -212q8 -31 24 -83l33 -109q17 -56 31.5 -108.5t24.5 -82.5h4l31 106l41 139l46 157l46 157l42 140l32 110h133l-375 -1225q-61 -201 -242 -201h-47v111h41q59 0 91 40t53 113l49 164l-163 498zM330 1171l147 332l127 -43l-196 -321z" />
<glyph unicode="&#xfe;" horiz-adv-x="874" d="M92 -412v1844h127v-537q2 0 4 -2q47 72 110.5 101.5t137.5 29.5q104 0 166.5 -43t94.5 -113.5t42 -164t10 -193.5q0 -96 -11 -189.5t-46 -167t-99.5 -118.5t-170.5 -45q-78 0 -133.5 30.5t-100.5 88.5h-4v-521h-127zM219 508q0 -61 4 -131t25.5 -128.5t63.5 -97 t120 -38.5q76 0 120 32.5t66.5 88t29.5 126t7 146.5q0 80 -7 152.5t-29.5 127t-65.5 86t-117 31.5q-80 0 -124 -38t-64.5 -96t-24.5 -128t-4 -133z" />
<glyph unicode="&#xff;" horiz-adv-x="768" d="M6 1010h137l66 -214l65 -212q8 -31 24 -83l33 -109q17 -56 31.5 -108.5t24.5 -82.5h4l31 106l41 139l46 157l46 157l42 140l32 110h133l-375 -1225q-61 -201 -242 -201h-47v111h41q59 0 91 40t53 113l49 164l-163 498zM158 1219v139h133v-139h-133zM502 1219v139h129 v-139h-129z" />
<glyph unicode="&#x152;" horiz-adv-x="1439" d="M90 442v559q0 80 21.5 158t69.5 139.5t126 99.5t193 38q31 0 59.5 -3t56.5 -8h738v-122h-609v-521h523v-116h-523v-541h609v-125h-731q-55 -12 -123 -12q-119 0 -198 34.5t-126 96t-66.5 144.5t-19.5 179zM219 442q0 -74 15.5 -134t49 -105t87 -69.5t131.5 -24.5 q63 0 112 20v1163q-47 18 -112 19q-84 0 -139.5 -30t-87 -77t-44 -105.5t-12.5 -115.5v-541z" />
<glyph unicode="&#x153;" horiz-adv-x="1443" d="M82 500q0 98 7 183t30 140q39 98 123 148.5t200 50.5q74 0 132.5 -22.5t99.5 -59.5q41 -39 61 -90q35 78 103.5 125t183.5 47q92 0 157.5 -32t107.5 -88t61.5 -134t19.5 -170v-125h-573q0 -84 10 -152.5t36.5 -117.5t74 -76t120.5 -27q66 0 119 37t78 90l106 -55 q-39 -88 -118.5 -136t-180.5 -48q-123 0 -197.5 41t-113.5 127q-23 -39 -47 -64q-47 -55 -111.5 -79.5t-144.5 -24.5q-106 0 -183 41t-118 135q-25 59 -34 145.5t-9 190.5zM207 485q0 -74 5 -140t28 -120q51 -125 194 -125q70 0 124 37t81 109q14 41 19.5 110.5t5.5 155.5 q0 92 -7.5 161.5t-23.5 106.5q-25 63 -76 95t-119 32q-66 0 -117 -29.5t-79 -89.5q-20 -41 -27.5 -120t-7.5 -183zM797 575h444v3q0 57 -9 114.5t-33.5 104.5t-68 76.5t-109 29.5t-107.5 -24.5t-67.5 -68.5t-36.5 -104.5t-13 -130.5z" />
<glyph unicode="&#x178;" horiz-adv-x="876" d="M14 1425h138l84 -201l83 -200q29 -68 56.5 -140.5t56.5 -140.5l139 328l148 354h135l-356 -831v-594h-127v594zM207 1532v137h133v-137h-133zM545 1532v137h131v-137h-131z" />
<glyph unicode="&#x2c6;" horiz-adv-x="946" d="M172 1186l270 274h86l258 -270l-59 -55l-248 200l-248 -202z" />
<glyph unicode="&#x2dc;" d="M123 1243q35 66 84 107t102 41q33 0 65 -13.5t62.5 -29t61 -28.5t59.5 -13q55 0 113 84l73 -45q-37 -78 -84 -114t-98 -36q-33 0 -64.5 12.5t-63.5 27.5l-62.5 28.5t-57.5 13.5q-57 0 -116 -76z" />
<glyph unicode="&#x2013;" horiz-adv-x="1021" d="M41 483v121h940v-121h-940z" />
<glyph unicode="&#x2014;" horiz-adv-x="2045" d="M41 483v121h1964v-121h-1964z" />
<glyph unicode="&#x2018;" horiz-adv-x="407" d="M123 1081v168l90 215h78l-51 -215h39v-168h-156z" />
<glyph unicode="&#x2019;" horiz-adv-x="407" d="M121 1081l51 215h-39v168h156v-168q-27 -51 -48 -106l-44 -109h-76z" />
<glyph unicode="&#x201a;" horiz-adv-x="387" d="M100 -219l54 213h-41v170h155v-164l-92 -219h-76z" />
<glyph unicode="&#x201c;" horiz-adv-x="555" d="M78 1081v168l92 215h76l-53 -215h40v-168h-155zM309 1081v168l90 215h78l-51 -215h39v-168h-156z" />
<glyph unicode="&#x201d;" horiz-adv-x="555" d="M84 1081l53 215h-41v170h156v-170l-90 -215h-78zM317 1081l52 215h-41v170h155v-170l-90 -215h-76z" />
<glyph unicode="&#x201e;" horiz-adv-x="665" d="M106 -219l54 213h-41v170h155v-164l-92 -219h-76zM381 -219l51 213h-41v170h156v-164l-90 -219h-76z" />
<glyph unicode="&#x2022;" horiz-adv-x="761" d="M166 561q0 45 17.5 85t46 69.5t68.5 47t85 17.5t85 -17.5t69.5 -47t47 -69.5t17.5 -85q0 -47 -17.5 -87t-47 -69.5t-69.5 -47t-85 -17.5t-85 17.5t-68.5 47t-46 69.5t-17.5 87z" />
<glyph unicode="&#x2026;" horiz-adv-x="1298" d="M123 0v166h153v-166h-153zM557 0v166h154v-166h-154zM997 0v166h156v-166h-156z" />
<glyph unicode="&#x2039;" horiz-adv-x="548" d="M96 469l234 373h127l-232 -373l232 -375h-127z" />
<glyph unicode="&#x203a;" horiz-adv-x="534" d="M96 94l230 375l-230 373h127l236 -373l-236 -375h-127z" />
<glyph unicode="&#x20ac;" d="M29 565v88h80v131h-80v86h80v158q0 90 25.5 165t74.5 129t119.5 84t160.5 30q131 0 229.5 -68t133.5 -197l-125 -36q-27 82 -86 132t-152 50q-63 0 -110 -22.5t-79 -62.5t-47 -92.5t-15 -109.5v-160h395v-86h-395v-131h395v-88h-395v-180q0 -57 16 -107.5t48 -88 t79 -60.5t108 -23q96 0 154.5 49.5t89.5 137.5l121 -37q-37 -133 -135 -200.5t-230 -67.5q-88 0 -158.5 29.5t-119.5 83t-75.5 130t-26.5 168.5v166h-80z" />
<glyph unicode="&#x2122;" horiz-adv-x="1499" d="M72 1329v96h522v-96h-209v-706h-102v706h-211zM694 623v800h99q8 -16 26 -58l43 -95l52 -114l53 -115l44 -95l27 -57q8 16 27 57l43 95l51 115l51 114l43 95q18 42 27 58h96v-800h-100v546l-201 -419h-82l-198 421h-2v-548h-99z" />
<glyph unicode="&#xe000;" horiz-adv-x="1010" d="M0 1010h1010v-1010h-1010v1010z" />
<glyph unicode="&#xfb01;" horiz-adv-x="843" d="M39 905v107h115v209q0 74 22.5 127t62.5 85.5t93 48t112 15.5q174 0 275 -108l-80 -89q-41 41 -90 57.5t-107 16.5q-158 0 -157 -155v-207h430v-1012h-127v905h-303v-905h-131v905h-115z" />
<glyph unicode="&#xfb02;" horiz-adv-x="897" d="M39 905v107h115v207q0 137 79.5 210.5t208.5 73.5q41 0 112 -9t163 -42v-1208q0 -66 25.5 -100.5t95.5 -34.5h28v-115h-41q-115 0 -176 49t-61 182v1135q-47 14 -80 18t-68 4q-84 0 -120.5 -44t-36.5 -128v-198h200v-107h-200v-905h-129v905h-115z" />
<glyph unicode="&#xfb03;" horiz-adv-x="1280" d="M39 905v107h115v182q0 74 22.5 127t62.5 87t93 49.5t112 15.5q117 0 205 -52q41 47 98.5 66.5t126.5 19.5q180 0 279 -106l-84 -88q-39 41 -88 57t-107 16q-80 0 -119.5 -40.5t-39.5 -114.5v-219h432v-1012h-129v905h-303v-905h-129v905h-301v-905h-131v905h-115z M285 1012h301v219q0 45 8 78q-35 23 -75 32t-75 9q-84 0 -121.5 -41t-37.5 -117v-180z" />
<glyph unicode="&#xfb04;" horiz-adv-x="1329" d="M39 905v107h115v182q0 74 23.5 127t63.5 86t92 48t111 15q53 0 106.5 -12t98.5 -37q41 47 98.5 67.5t126.5 20.5q41 0 112 -10t161 -43v-1212q0 -66 26.5 -100.5t96.5 -34.5h28v-115h-43q-113 0 -175 49t-62 182v1141q-45 14 -78 18.5t-68 4.5q-84 0 -121.5 -43 t-37.5 -127v-207h202v-107h-202v-905h-127v905h-301v-905h-131v905h-115zM285 1012h301v211q0 51 8 86q-37 23 -76 31t-74 8q-160 0 -159 -156v-180z" />
</font>
</defs>
</svg>
